<?xml version="1.0" encoding="UTF-8" standalone="no"?>
<!-- Generator: Adobe Illustrator 19.0.0, SVG Export Plug-In . SVG Version: 6.00 Build 0)  -->

<svg
   xmlns:dc="http://purl.org/dc/elements/1.1/"
   xmlns:cc="http://creativecommons.org/ns#"
   xmlns:rdf="http://www.w3.org/1999/02/22-rdf-syntax-ns#"
   xmlns:svg="http://www.w3.org/2000/svg"
   xmlns="http://www.w3.org/2000/svg"
   xmlns:sodipodi="http://sodipodi.sourceforge.net/DTD/sodipodi-0.dtd"
   xmlns:inkscape="http://www.inkscape.org/namespaces/inkscape"
   version="1.1"
   id="Capa_1"
   x="0px"
   y="0px"
   viewBox="0 0 512 512"
   style="enable-background:new 0 0 512 512;"
   xml:space="preserve"
   sodipodi:docname="error.svg"
   inkscape:version="0.92.3 (2405546, 2018-03-11)"><metadata
   id="metadata85"><rdf:RDF><cc:Work
       rdf:about=""><dc:format>image/svg+xml</dc:format><dc:type
         rdf:resource="http://purl.org/dc/dcmitype/StillImage" /></cc:Work></rdf:RDF></metadata><defs
   id="defs83" /><sodipodi:namedview
   pagecolor="#ffffff"
   bordercolor="#666666"
   borderopacity="1"
   objecttolerance="10"
   gridtolerance="10"
   guidetolerance="10"
   inkscape:pageopacity="0"
   inkscape:pageshadow="2"
   inkscape:window-width="814"
   inkscape:window-height="480"
   id="namedview81"
   showgrid="false"
   inkscape:zoom="0.4609375"
   inkscape:cx="256"
   inkscape:cy="256"
   inkscape:window-x="0"
   inkscape:window-y="27"
   inkscape:window-maximized="0"
   inkscape:current-layer="Capa_1" />
<g
   id="g6"
   style="fill:#ffffff">
	<g
   id="g4"
   style="fill:#ffffff">
		<path
   d="M59.375,84.264c-13.422,0-24.341,10.919-24.341,24.34c0,13.422,10.919,24.34,24.341,24.34    c13.42,0,24.34-10.919,24.34-24.34C83.714,95.183,72.795,84.264,59.375,84.264z M59.375,117.736c-5.036,0-9.133-4.097-9.133-9.132    s4.097-9.132,9.133-9.132c5.036,0,9.132,4.097,9.132,9.132S64.41,117.736,59.375,117.736z"
   id="path2"
   style="fill:#ffffff" />
	</g>
</g>
<g
   id="g12"
   style="fill:#ffffff">
	<g
   id="g10"
   style="fill:#ffffff">
		<path
   d="M115.719,84.265c-13.422,0-24.341,10.919-24.341,24.34s10.918,24.34,24.341,24.34c13.42,0,24.34-10.919,24.34-24.34    C140.059,95.183,129.14,84.265,115.719,84.265z M115.719,117.735c-5.036,0-9.133-4.097-9.133-9.132    c0-5.035,4.097-9.132,9.133-9.132c5.036,0,9.132,4.097,9.132,9.132C124.851,113.638,120.755,117.735,115.719,117.735z"
   id="path8"
   style="fill:#ffffff" />
	</g>
</g>
<g
   id="g18"
   style="fill:#ffffff">
	<g
   id="g16"
   style="fill:#ffffff">
		<path
   d="M172.063,84.265c-13.42,0-24.34,10.919-24.34,24.34c0,13.422,10.919,24.34,24.34,24.34s24.34-10.919,24.34-24.34    C196.403,95.183,185.484,84.265,172.063,84.265z M172.063,117.736c-5.036,0-9.132-4.097-9.132-9.132    c0-5.036,4.096-9.132,9.132-9.132c5.036,0,9.132,4.097,9.132,9.132S177.099,117.736,172.063,117.736z"
   id="path14"
   style="fill:#ffffff" />
	</g>
</g>
<g
   id="g24"
   style="fill:#ffffff">
	<g
   id="g22"
   style="fill:#ffffff">
		<path
   d="M471.891,60.064H40.098c-22.11,0-40.097,17.988-40.097,40.097v51.005c0,0.006-0.001,0.013-0.001,0.019    c0,0.006,0.001,0.013,0.001,0.019v260.634c0,22.11,17.987,40.097,40.097,40.097h336.552c4.2,0,7.604-3.405,7.604-7.604    c0-4.199-3.404-7.604-7.604-7.604H40.098c-13.724,0-24.889-11.166-24.889-24.889v-253.05h54.244c4.2,0,7.604-3.405,7.604-7.604    s-3.404-7.604-7.604-7.604H15.209v-43.421c0-13.725,11.166-24.889,24.889-24.889h431.793c13.731,0,24.901,11.166,24.901,24.889    v43.421H96.751c-4.2,0-7.604,3.405-7.604,7.604s3.404,7.604,7.604,7.604h400.041v253.05c0,13.725-11.171,24.889-24.901,24.889    h-69.893c-4.2,0-7.604,3.405-7.604,7.604c0,4.199,3.404,7.604,7.604,7.604h69.893c22.115,0,40.109-17.988,40.109-40.097V100.161    C512,78.052,494.007,60.064,471.891,60.064z"
   id="path20"
   style="fill:#ffffff" />
	</g>
</g>
<g
   id="g30"
   style="fill:#ffffff">
	<g
   id="g28"
   style="fill:#ffffff">
		<path
   d="M165.494,303.292h-3.032v-16.157c0-10.097-8.968-16.882-22.314-16.882c-13.345,0-22.313,6.785-22.313,16.882v16.157    h-9.087l19.597-76.86c1.016-2.639,1.007-5.474,1.002-7.079v-0.216c0-12.498-17.126-17.905-25.862-17.905    c-8.604,0-15.639,4.377-19.302,12.007c-0.199,0.415-0.359,0.847-0.481,1.29C53.564,325.04,53.564,326.543,53.564,327.869    c0,10.438,7.385,18.014,17.56,18.014h46.708v19.099c0.003,9.781,9.386,16.881,22.315,16.881c13.138,0,22.314-6.942,22.314-16.882    v-19.099h3.032c9.949,0,16.882-11.163,16.882-21.182C182.375,312.296,175.275,303.292,165.494,303.292z M164.87,330.671h-10.013    c-4.2,0-7.604,3.405-7.604,7.604v26.528c-0.573,0.574-2.979,1.85-7.106,1.85c-3.881,0-6.457-1.252-7.105-1.899v-26.479    c0-4.199-3.404-7.604-7.604-7.604H71.126v0.002c-1.13,0-2.155-0.178-2.328-2.176c1.803-7.71,18.257-68.454,29.367-109.2    c0.766-1.352,2.176-2.859,5.32-2.859c3.221,0,8.983,1.924,10.654,3.477c-0.003,0.4-0.015,0.879-0.054,1.188    c-0.135,0.329-0.247,0.668-0.336,1.014l-22.157,86.898c-0.58,2.275-0.076,4.69,1.365,6.544c1.44,1.854,3.656,2.938,6.004,2.938    h26.477c4.2,0,7.604-3.405,7.604-7.604l0.003-23.737c0.531-0.527,2.865-1.698,7.102-1.698c4.286,0,6.607,1.148,7.106,1.651    c0,0.007,0,0.015,0,0.023v23.761c0,4.199,3.404,7.604,7.604,7.604l10.602,0.001c0.5,0.422,1.709,2.5,1.709,6.2    C167.169,327.522,165.702,329.937,164.87,330.671z"
   id="path26"
   style="fill:#ffffff" />
	</g>
</g>
<g
   id="g36"
   style="fill:#ffffff">
	<g
   id="g34"
   style="fill:#ffffff">
		<path
   d="M441.552,303.292h-3.031v-16.157c0-10.097-8.968-16.882-22.315-16.882c-13.345,0-22.313,6.785-22.313,16.882v16.157    h-9.087l19.597-76.86c1.016-2.639,1.007-5.474,1.002-7.079v-0.216c0-12.498-17.126-17.905-25.862-17.905    c-8.603,0-15.638,4.377-19.301,12.007c-0.199,0.415-0.359,0.847-0.481,1.29c0,0-3.819,14.003-8.726,32.081    c-1.1,4.053,1.294,8.231,5.346,9.331c4.051,1.1,8.23-1.293,9.331-5.346c4.23-15.583,7.652-28.138,8.512-31.296    c0.766-1.351,2.176-2.858,5.319-2.858c3.221,0,8.983,1.924,10.654,3.477c-0.003,0.401-0.015,0.879-0.054,1.188    c-0.135,0.33-0.247,0.668-0.336,1.014l-22.157,86.898c-0.58,2.275-0.076,4.69,1.365,6.544c1.44,1.854,3.656,2.938,6.004,2.938    h26.477c4.2,0,7.604-3.405,7.604-7.604l0.003-23.738c0.531-0.527,2.865-1.698,7.102-1.698c4.286,0,6.608,1.148,7.107,1.651    c0,0.007,0,0.015,0,0.023v23.761c0,4.199,3.404,7.604,7.604,7.604l10.601,0.001c0.5,0.422,1.709,2.5,1.709,6.2    c0,2.825-1.466,5.24-2.298,5.974h-10.012c-4.2,0-7.604,3.405-7.604,7.604v26.528c-0.573,0.574-2.979,1.85-7.107,1.85    c-3.881,0-6.457-1.252-7.105-1.899v-26.479c0-4.199-3.404-7.604-7.604-7.604h-54.312c-1.129,0-2.154-0.178-2.327-2.172    c0.585-2.482,3.269-12.935,14.679-55.117c1.096-4.054-1.301-8.23-5.355-9.326c-4.05-1.095-8.229,1.301-9.326,5.354    c-15.23,56.311-15.23,56.982-15.23,58.453c0,10.438,7.385,18.014,17.56,18.014h46.708v19.099c0,9.783,9.384,16.883,22.313,16.883    c13.139,0,22.315-6.942,22.315-16.882v-19.099h3.031c9.949,0,16.882-11.163,16.882-21.182    C458.434,312.296,451.334,303.292,441.552,303.292z"
   id="path32"
   style="fill:#ffffff" />
	</g>
</g>
<g
   id="g42"
   style="fill:#ffffff">
	<g
   id="g40"
   style="fill:#ffffff">
		<path
   d="M253.568,201.231c-38.485,0-60.558,21.66-60.558,59.427v63.137c0,37.766,22.073,59.427,60.558,59.427    c38.629,0,60.783-21.66,60.783-59.427v-63.137C314.351,222.891,292.196,201.231,253.568,201.231z M299.144,323.794    c0,29.341-15.334,44.219-45.575,44.219c-30.092,0-45.35-14.877-45.35-44.219v-63.137c0-29.341,15.259-44.219,45.35-44.219    c30.241,0,45.575,14.878,45.575,44.219V323.794z"
   id="path38"
   style="fill:#ffffff" />
	</g>
</g>
<g
   id="g48"
   style="fill:#ffffff">
	<g
   id="g46"
   style="fill:#ffffff">
		<path
   d="M253.569,227.029c-19.79,0-31.139,12.257-31.139,33.628v63.137c0,21.371,11.349,33.628,31.139,33.628    c19.639,0,31.365-12.571,31.365-33.628v-63.137C284.934,239.6,273.209,227.029,253.569,227.029z M269.725,323.794    c0,9.109-1.92,18.42-16.157,18.42c-14.001,0-15.931-8.853-15.931-18.42v-63.137c0-9.568,1.929-18.42,15.931-18.42    c14.238,0,16.157,9.311,16.157,18.42V323.794z"
   id="path44"
   style="fill:#ffffff" />
	</g>
</g>
<g
   id="g50">
</g>
<g
   id="g52">
</g>
<g
   id="g54">
</g>
<g
   id="g56">
</g>
<g
   id="g58">
</g>
<g
   id="g60">
</g>
<g
   id="g62">
</g>
<g
   id="g64">
</g>
<g
   id="g66">
</g>
<g
   id="g68">
</g>
<g
   id="g70">
</g>
<g
   id="g72">
</g>
<g
   id="g74">
</g>
<g
   id="g76">
</g>
<g
   id="g78">
</g>
</svg>